<svg xmlns="http://www.w3.org/2000/svg" width="404.173" height="807" viewBox="0 0 404.173 807">
  <g id="Group_121" data-name="Group 121" transform="translate(-13093.617 17825)">
    <path id="Path_704" data-name="Path 704" d="M4563.4,2958.6v9.24a11.94,11.94,0,0,1-11.94,11.93H4416.93a11.92,11.92,0,0,1-11.9-11.93v-9.24Z" transform="translate(8811.004 -20630)" fill="#83aada"/>
    <path id="Path_705" data-name="Path 705" d="M4484.7,2979.77V3612h-.59c-192,0-279.36-248.87-114.91-365.1,30.41-21.49,48.95-56,48.95-93.21V2979.77Z" transform="translate(8811.004 -20630)" fill="#9cbde3"/>
    <path id="Path_706" data-name="Path 706" d="M4484.11,2979.77V3612h.59c192.59,0,280.17-248.87,115.23-365.1-30.49-21.49-49.08-56-49.08-93.21V2979.77Z" transform="translate(8811.004 -20630)" fill="#75a6d8"/>
    <path id="Path_707" data-name="Path 707" d="M4484.13,3383.5v197.86c-114.17,0-185.6-101.6-173.08-197.86Z" transform="translate(8811.004 -20630)" fill="#ffc708"/>
    <path id="Path_708" data-name="Path 708" d="M4484.13,3581.36V3383.5h173.24C4669.74,3479.8,4597.6,3581.36,4484.13,3581.36Z" transform="translate(8811.004 -20630)" fill="#faa819"/>
    <path id="Path_709" data-name="Path 709" d="M4563.4,2949.33v9.27H4405v-9.27a11.9,11.9,0,0,1,11.9-11.93h134.53a11.931,11.931,0,0,1,11.97,11.93Z" transform="translate(8811.004 -20630)" fill="#c3d6ee"/>
    <path id="Path_710" data-name="Path 710" d="M4579.63,3285.13a81.67,81.67,0,1,1-81.68-81.69,81.669,81.669,0,0,1,81.68,81.69Z" transform="translate(8811.004 -20630)" fill="#faa819"/>
    <path id="Path_711" data-name="Path 711" d="M4503.46,3203.64v14.21h-11v-14.21A79.369,79.369,0,0,1,4503.46,3203.64Z" transform="translate(8811.004 -20630)" fill="#f58a1f"/>
    <path id="Path_712" data-name="Path 712" d="M4478,3205.93l4.39,13.52-10.46,3.39-4.4-13.52a78.441,78.441,0,0,1,10.47-3.39Z" transform="translate(8811.004 -20630)" fill="#f58a1f"/>
    <path id="Path_713" data-name="Path 713" d="M4454.51,3216l8.35,11.49-8.9,6.47-8.35-11.5A78.329,78.329,0,0,1,4454.51,3216Z" transform="translate(8811.004 -20630)" fill="#f58a1f"/>
    <path id="Path_714" data-name="Path 714" d="M4435.26,3232.78l11.5,8.34-6.47,8.9-11.5-8.35a79.693,79.693,0,0,1,6.47-8.89Z" transform="translate(8811.004 -20630)" fill="#f58a1f"/>
    <path id="Path_715" data-name="Path 715" d="M4422.16,3254.7l13.52,4.4-3.4,10.46-13.54-4.39a81.574,81.574,0,0,1,3.42-10.47Z" transform="translate(8811.004 -20630)" fill="#f58a1f"/>
    <path id="Path_716" data-name="Path 716" d="M4416.46,3279.61h14.23v11h-14.23A81.076,81.076,0,0,1,4416.46,3279.61Z" transform="translate(8811.004 -20630)" fill="#f58a1f"/>
    <path id="Path_717" data-name="Path 717" d="M4418.74,3305.08l13.54-4.41,3.39,10.47-13.51,4.4a78.442,78.442,0,0,1-3.42-10.46Z" transform="translate(8811.004 -20630)" fill="#f58a1f"/>
    <path id="Path_718" data-name="Path 718" d="M4428.79,3328.56l11.5-8.34,6.47,8.9-11.5,8.35a78.137,78.137,0,0,1-6.47-8.91Z" transform="translate(8811.004 -20630)" fill="#f58a1f"/>
    <path id="Path_719" data-name="Path 719" d="M4445.6,3347.81l8.35-11.51,8.91,6.48-8.36,11.5a77.354,77.354,0,0,1-8.9-6.47Z" transform="translate(8811.004 -20630)" fill="#f58a1f"/>
    <path id="Path_720" data-name="Path 720" d="M4467.53,3360.92l4.4-13.52,10.47,3.39-4.39,13.54A80.08,80.08,0,0,1,4467.53,3360.92Z" transform="translate(8811.004 -20630)" fill="#f58a1f"/>
    <path id="Path_721" data-name="Path 721" d="M4492.45,3366.61v-14.2h11v14.2a80.714,80.714,0,0,1-11,0Z" transform="translate(8811.004 -20630)" fill="#f58a1f"/>
    <path id="Path_722" data-name="Path 722" d="M4517.9,3364.34l-4.4-13.55,10.47-3.39,4.39,13.52a81.467,81.467,0,0,1-10.46,3.42Z" transform="translate(8811.004 -20630)" fill="#f58a1f"/>
    <path id="Path_723" data-name="Path 723" d="M4541.39,3354.28l-8.36-11.49,8.91-6.47,8.35,11.5A81.126,81.126,0,0,1,4541.39,3354.28Z" transform="translate(8811.004 -20630)" fill="#f58a1f"/>
    <path id="Path_724" data-name="Path 724" d="M4560.64,3337.48l-11.5-8.36,6.47-8.9,11.5,8.36a82.1,82.1,0,0,1-6.471,8.9Z" transform="translate(8811.004 -20630)" fill="#f58a1f"/>
    <path id="Path_725" data-name="Path 725" d="M4573.74,3315.54l-13.51-4.39,3.4-10.47,13.52,4.4A79.3,79.3,0,0,1,4573.74,3315.54Z" transform="translate(8811.004 -20630)" fill="#f58a1f"/>
    <path id="Path_726" data-name="Path 726" d="M4579.44,3290.63h-14.22v-11h14.21A79.217,79.217,0,0,1,4579.44,3290.63Z" transform="translate(8811.004 -20630)" fill="#f58a1f"/>
    <path id="Path_727" data-name="Path 727" d="M4577.15,3265.18l-13.52,4.4-3.4-10.47,13.51-4.4A77.882,77.882,0,0,1,4577.15,3265.18Z" transform="translate(8811.004 -20630)" fill="#f58a1f"/>
    <path id="Path_728" data-name="Path 728" d="M4567.11,3241.67l-11.5,8.37-6.46-8.92,11.49-8.34a78.5,78.5,0,0,1,6.47,8.89Z" transform="translate(8811.004 -20630)" fill="#f58a1f"/>
    <path id="Path_729" data-name="Path 729" d="M4550.31,3222.43l-8.36,11.5-8.9-6.47,8.36-11.49a81.543,81.543,0,0,1,8.9,6.46Z" transform="translate(8811.004 -20630)" fill="#f58a1f"/>
    <path id="Path_730" data-name="Path 730" d="M4528.36,3209.32l-4.38,13.54-10.47-3.41,4.39-13.51a79.153,79.153,0,0,1,10.46,3.38Z" transform="translate(8811.004 -20630)" fill="#f58a1f"/>
    <path id="Path_731" data-name="Path 731" d="M4561,3285.12a63,63,0,1,1-63-63,63,63,0,0,1,63,63Z" transform="translate(8811.004 -20630)" fill="#ffc708"/>
    <path id="Path_732" data-name="Path 732" d="M4519.79,3285q-4.2-4.08-14.2-6.09l-6.58-1.33q-4.69-1-6.49-2.31a4.41,4.41,0,0,1-1.78-3.75,5.079,5.079,0,0,1,2.65-4.73c1.76-1,4.5-1.53,8.19-1.53a38.006,38.006,0,0,1,8.87,1.13,53.9,53.9,0,0,1,9.63,3.34V3257a92.593,92.593,0,0,0-10.8-2.25c-1.05-.14-2.07-.24-3.11-.33v-7h-11.58v6.84c-5.05.56-9.08,2.07-12.08,4.57q-5.79,4.83-5.79,13.77c0,4.77,1.4,8.55,4.17,11.37s7.15,4.84,13.14,6.13l6,1.32q5.46,1.21,7.28,2.74a5.8,5.8,0,0,1-.86,9.14c-1.78,1.13-4.38,1.69-7.73,1.69a37.631,37.631,0,0,1-10.34-1.54,59.177,59.177,0,0,1-11.11-4.6v13a71.752,71.752,0,0,0,11.49,3.2,55.223,55.223,0,0,0,5.851.83v6.86h11.58v-7c5.08-.6,9.1-2.11,12-4.47q5.9-4.83,5.89-14.74Q4524,3289.07,4519.79,3285Z" transform="translate(8811.004 -20630)" fill="#fcee3b"/>
    <path id="Path_733" data-name="Path 733" d="M4451.79,3399a62.36,62.36,0,1,1-62.356-62.34A62.359,62.359,0,0,1,4451.79,3399Z" transform="translate(8811.004 -20630)" fill="#faa819"/>
    <path id="Path_734" data-name="Path 734" d="M4393.62,3336.78v10.85h-8.4v-10.85a57.46,57.46,0,0,1,8.4,0Z" transform="translate(8811.004 -20630)" fill="#f58a1f"/>
    <path id="Path_735" data-name="Path 735" d="M4374.19,3338.51l3.35,10.34-8,2.59-3.35-10.32a60.917,60.917,0,0,1,8-2.611Z" transform="translate(8811.004 -20630)" fill="#f58a1f"/>
    <path id="Path_736" data-name="Path 736" d="M4356.25,3346.2l6.38,8.76-6.79,4.94-6.37-8.78A57.985,57.985,0,0,1,4356.25,3346.2Z" transform="translate(8811.004 -20630)" fill="#f58a1f"/>
    <path id="Path_737" data-name="Path 737" d="M4341.57,3359l8.78,6.37-5,6.79-8.77-6.38a58.007,58.007,0,0,1,4.99-6.78Z" transform="translate(8811.004 -20630)" fill="#f58a1f"/>
    <path id="Path_738" data-name="Path 738" d="M4331.55,3375.75l10.32,3.37-2.6,8-10.32-3.36a64.289,64.289,0,0,1,2.6-8.01Z" transform="translate(8811.004 -20630)" fill="#f58a1f"/>
    <path id="Path_739" data-name="Path 739" d="M4327.2,3394.78h10.87v8.4H4327.2A61.984,61.984,0,0,1,4327.2,3394.78Z" transform="translate(8811.004 -20630)" fill="#f58a1f"/>
    <path id="Path_740" data-name="Path 740" d="M4329,3414.22l10.32-3.36,2.6,8-10.32,3.35a63.469,63.469,0,0,1-2.6-7.99Z" transform="translate(8811.004 -20630)" fill="#f58a1f"/>
    <path id="Path_741" data-name="Path 741" d="M4336.63,3432.15l8.77-6.37,5,6.78-8.78,6.39A58.06,58.06,0,0,1,4336.63,3432.15Z" transform="translate(8811.004 -20630)" fill="#f58a1f"/>
    <path id="Path_742" data-name="Path 742" d="M4349.46,3446.84l6.37-8.77,6.8,4.92-6.38,8.79a60.594,60.594,0,0,1-6.79-4.94Z" transform="translate(8811.004 -20630)" fill="#f58a1f"/>
    <path id="Path_743" data-name="Path 743" d="M4366.2,3456.86l3.35-10.33,8,2.59-3.35,10.33A63.08,63.08,0,0,1,4366.2,3456.86Z" transform="translate(8811.004 -20630)" fill="#f58a1f"/>
    <path id="Path_744" data-name="Path 744" d="M4385.22,3461.2v-10.85h8.4v10.85a62.07,62.07,0,0,1-8.4,0Z" transform="translate(8811.004 -20630)" fill="#f58a1f"/>
    <path id="Path_745" data-name="Path 745" d="M4404.65,3459.45l-3.36-10.33,8-2.59,3.35,10.33a60.885,60.885,0,0,1-7.99,2.59Z" transform="translate(8811.004 -20630)" fill="#f58a1f"/>
    <path id="Path_746" data-name="Path 746" d="M4422.59,3451.78l-6.38-8.77,6.79-4.94,6.39,8.79a64.93,64.93,0,0,1-6.8,4.92Z" transform="translate(8811.004 -20630)" fill="#f58a1f"/>
    <path id="Path_747" data-name="Path 747" d="M4437.28,3439l-8.79-6.41,4.95-6.77,8.78,6.36A61.443,61.443,0,0,1,4437.28,3439Z" transform="translate(8811.004 -20630)" fill="#f58a1f"/>
    <path id="Path_748" data-name="Path 748" d="M4447.29,3422.2l-10.33-3.35,2.59-8,10.34,3.36A61.425,61.425,0,0,1,4447.29,3422.2Z" transform="translate(8811.004 -20630)" fill="#f58a1f"/>
    <path id="Path_749" data-name="Path 749" d="M4451.65,3403.19h-10.87v-8.4h10.85A62.063,62.063,0,0,1,4451.65,3403.19Z" transform="translate(8811.004 -20630)" fill="#f58a1f"/>
    <path id="Path_750" data-name="Path 750" d="M4449.89,3383.76l-10.34,3.36-2.58-8,10.32-3.37a61.711,61.711,0,0,1,2.6,8.01Z" transform="translate(8811.004 -20630)" fill="#f58a1f"/>
    <path id="Path_751" data-name="Path 751" d="M4442.22,3365.81l-8.78,6.39-4.94-6.8,8.78-6.37a62.171,62.171,0,0,1,4.94,6.781Z" transform="translate(8811.004 -20630)" fill="#f58a1f"/>
    <path id="Path_752" data-name="Path 752" d="M4429.39,3351.12l-6.38,8.79-6.79-4.95,6.38-8.76a60.973,60.973,0,0,1,6.79,4.92Z" transform="translate(8811.004 -20630)" fill="#f58a1f"/>
    <path id="Path_753" data-name="Path 753" d="M4412.63,3341.12l-3.35,10.33-8-2.6,3.35-10.32A57.106,57.106,0,0,1,4412.63,3341.12Z" transform="translate(8811.004 -20630)" fill="#f58a1f"/>
    <path id="Path_754" data-name="Path 754" d="M4437.51,3399a48.09,48.09,0,1,1-48.09-48.09,48.091,48.091,0,0,1,48.09,48.09Z" transform="translate(8811.004 -20630)" fill="#ffc708"/>
    <path id="Path_755" data-name="Path 755" d="M4406.1,3398.89c-2.15-2.1-5.75-3.66-10.85-4.67l-5-1a13.067,13.067,0,0,1-4.95-1.75,3.39,3.39,0,0,1-1.361-2.87,3.869,3.869,0,0,1,2-3.61c1.35-.78,3.43-1.16,6.25-1.16a30.2,30.2,0,0,1,6.771.84,43.647,43.647,0,0,1,7.37,2.549v-9.689a71.366,71.366,0,0,0-8.259-1.69c-.8-.13-1.581-.18-2.371-.27v-5.33h-8.84v5.23a16.821,16.821,0,0,0-9.23,3.49c-2.95,2.44-4.41,5.94-4.41,10.5a11.761,11.761,0,0,0,3.18,8.67q3.15,3.209,10,4.69l4.56,1c2.78.61,4.63,1.31,5.57,2.09a4.151,4.151,0,0,1,1.39,3.31,4.08,4.08,0,0,1-2.05,3.67,11.149,11.149,0,0,1-5.91,1.291,28.731,28.731,0,0,1-7.9-1.18,45.189,45.189,0,0,1-8.479-3.51v10a52.363,52.363,0,0,0,8.779,2.439c1.48.281,3,.5,4.471.64v5.23h8.84v-5.31a17.57,17.57,0,0,0,9.13-3.41c3-2.46,4.48-6.22,4.48-11.26Q4409.31,3402,4406.1,3398.89Z" transform="translate(8811.004 -20630)" fill="#fcee3b"/>
    <path id="Path_756" data-name="Path 756" d="M4520.22,2841.09a36.1,36.1,0,1,1-36.093-36.09,36.1,36.1,0,0,1,36.093,36.09Z" transform="translate(8811.004 -20630)" fill="#ffc708"/>
  </g>
</svg>
