<svg xmlns="http://www.w3.org/2000/svg" width="650" height="464.76" viewBox="0 0 650 464.76">
  <g id="Group_127" data-name="Group 127" transform="translate(-11736.004 20090.68)">
    <path id="Path_877" data-name="Path 877" d="M2995,580.59V889c0,87.77,132.72,88.15,132.72,0V580.59Z" transform="translate(8811.004 -20630)" fill="#9cbde3"/>
    <rect id="Rectangle_104" data-name="Rectangle 104" width="132.73" height="40.83" transform="translate(11806.014 -20049.41)" fill="#86b3df"/>
    <path id="Path_878" data-name="Path 878" d="M3016.52,784.8V888.08a44.85,44.85,0,0,0,89.7,0V784.8Z" transform="translate(8811.004 -20630)" fill="#bf3c95"/>
    <path id="Path_879" data-name="Path 879" d="M3146.71,562.13v10A12.84,12.84,0,0,1,3133.87,585h-145A12.83,12.83,0,0,1,2976,572.12v-10Z" transform="translate(8811.004 -20630)" fill="#69a3d8"/>
    <path id="Path_880" data-name="Path 880" d="M3146.71,552.16v10H2976v-10a12.8,12.8,0,0,1,12.82-12.84h145a12.81,12.81,0,0,1,12.89,12.84Z" transform="translate(8811.004 -20630)" fill="#c3d6ee"/>
    <path id="Path_881" data-name="Path 881" d="M3183.64,580.59V889a66.36,66.36,0,0,0,132.72,0V580.59Z" transform="translate(8811.004 -20630)" fill="#9cbde3"/>
    <rect id="Rectangle_105" data-name="Rectangle 105" width="132.73" height="40.83" transform="translate(11994.644 -20049.41)" fill="#86b3df"/>
    <path id="Path_882" data-name="Path 882" d="M3205.15,721.83V888.08a44.85,44.85,0,0,0,89.7,0V721.83Z" transform="translate(8811.004 -20630)" fill="#e2e325"/>
    <path id="Path_883" data-name="Path 883" d="M3335.33,562.13v10A12.84,12.84,0,0,1,3322.5,585h-145a12.83,12.83,0,0,1-12.82-12.85v-10Z" transform="translate(8811.004 -20630)" fill="#69a3d8"/>
    <path id="Path_884" data-name="Path 884" d="M3335.33,552.16v10H3164.67v-10a12.8,12.8,0,0,1,12.82-12.84h145a12.8,12.8,0,0,1,12.841,12.84Z" transform="translate(8811.004 -20630)" fill="#c3d6ee"/>
    <path id="Path_885" data-name="Path 885" d="M3372.27,580.59V889A66.365,66.365,0,0,0,3505,889V580.59Z" transform="translate(8811.004 -20630)" fill="#9cbde3"/>
    <rect id="Rectangle_106" data-name="Rectangle 106" width="132.73" height="40.83" transform="translate(12183.273 -20049.41)" fill="#86b3df"/>
    <path id="Path_886" data-name="Path 886" d="M3393.78,760.62V888.08a44.85,44.85,0,0,0,89.7,0V760.62Z" transform="translate(8811.004 -20630)" fill="#287fc1"/>
    <path id="Path_887" data-name="Path 887" d="M3524,562.13v10A12.839,12.839,0,0,1,3511.13,585h-145a12.85,12.85,0,0,1-12.83-12.85v-10Z" transform="translate(8811.004 -20630)" fill="#69a3d8"/>
    <path id="Path_888" data-name="Path 888" d="M3524,552.16v10H3353.29v-10a12.809,12.809,0,0,1,12.83-12.84h145A12.8,12.8,0,0,1,3524,552.16Z" transform="translate(8811.004 -20630)" fill="#c3d6ee"/>
    <rect id="Rectangle_107" data-name="Rectangle 107" width="34.12" height="284.53" transform="translate(11754.994 -19945.141)" fill="#3a3a3a"/>
    <rect id="Rectangle_108" data-name="Rectangle 108" width="34.12" height="284.53" transform="translate(12332.894 -19945.141)" fill="#3a3a3a"/>
    <rect id="Rectangle_109" data-name="Rectangle 109" width="650" height="34.69" transform="translate(11736.004 -19979.84)" fill="#58595a"/>
    <rect id="Rectangle_110" data-name="Rectangle 110" width="650" height="34.69" transform="translate(11736.004 -19660.609)" fill="#58595a"/>
  </g>
</svg>
