<svg xmlns="http://www.w3.org/2000/svg" width="580.9" height="699" viewBox="0 0 580.9 699">
  <g id="Group_123" data-name="Group 123" transform="translate(-10544.494 17714)">
    <path id="Path_771" data-name="Path 771" d="M1720.19,2729.3l-279.88-126.6V2505h-42.62v125.19l279.88,126.61v195.39l-279.88,126.62V3204h42.62v-97.7l279.88-126.6Z" transform="translate(9276.004 -20219)" fill="#ed2424"/>
    <path id="Path_772" data-name="Path 772" d="M1397.69,2729.3l279.88-126.6V2505h42.62v125.19L1440.31,2756.8v195.39l279.88,126.62V3204h-42.62v-97.7l-279.88-126.6Z" transform="translate(9276.004 -20219)" fill="#2591cf"/>
    <rect id="Rectangle_62" data-name="Rectangle 62" width="241.12" height="21.31" transform="translate(10593.824 -17420.311)" fill="#45bbec"/>
    <rect id="Rectangle_63" data-name="Rectangle 63" width="86.57" height="21.31" transform="translate(10834.943 -17364.5)" fill="#ed2424"/>
    <rect id="Rectangle_64" data-name="Rectangle 64" width="86.57" height="21.31" transform="translate(10748.374 -17364.5)" fill="#2591cf"/>
    <rect id="Rectangle_65" data-name="Rectangle 65" width="86.57" height="21.31" transform="translate(10748.374 -17308.689)" fill="#2591cf"/>
    <path id="Path_773" data-name="Path 773" d="M1800.09,3220.35a33.3,33.3,0,1,0,0,.007Z" transform="translate(8811.004 -20630)" fill="#45bbec"/>
    <rect id="Rectangle_66" data-name="Rectangle 66" width="241.12" height="21.31" transform="translate(10834.943 -17308.689)" fill="#ee4234"/>
    <path id="Path_774" data-name="Path 774" d="M2247.79,3332a33.3,33.3,0,1,1,33.3,33.29,33.3,33.3,0,0,1-33.3-33.29Z" transform="translate(8811.004 -20630)" fill="#ee4234"/>
    <rect id="Rectangle_67" data-name="Rectangle 67" width="86.57" height="21.31" transform="translate(11032.784 -17409.65)" fill="#2591cf"/>
    <rect id="Rectangle_68" data-name="Rectangle 68" width="21.31" height="73.97" transform="translate(10567.144 -17094)" fill="#2591cf"/>
    <path id="Path_775" data-name="Path 775" d="M1275.09,2931.11l26.42,34-26.42,33.98,36.59,47.08,16.83-13.08-26.43-34,26.43-33.98-26.43-34,26.43-33.98-16.83-13.08Z" transform="translate(9276.004 -20219)" fill="#f8e74c"/>
    <path id="Path_776" data-name="Path 776" d="M1809.5,2698.68l-26.43-34,26.43-33.98-36.59-47.08-16.83,13.08,26.43,34-26.43,33.98,26.43,34-26.43,33.99,16.83,13.07Z" transform="translate(9276.004 -20219)" fill="#f8e74c"/>
    <rect id="Rectangle_69" data-name="Rectangle 69" width="86.57" height="21.31" transform="translate(10834.943 -17420.311)" fill="#ed2424"/>
  </g>
</svg>
