<svg xmlns="http://www.w3.org/2000/svg" width="482.09" height="829.988" viewBox="0 0 482.09 829.988">
  <g id="Group_131" data-name="Group 131" transform="translate(-14276.704 16595.006)">
    <path id="Path_601" data-name="Path 601" d="M5706.74,4528.6v319c22.39,32.82,177.89,27.8,132.34-91.58a44.07,44.07,0,0,0,49.951-68.81,44.06,44.06,0,0,0,26.279-80.88,44.069,44.069,0,0,0,32.48-42.48c0-20.35-7.15-30.19-25.81-35.27Z" transform="translate(8811.004 -20630)" fill="#db0c80"/>
    <path id="Path_602" data-name="Path 602" d="M5785.46,4194.94v9.25a11.93,11.93,0,0,1-11.93,11.93H5639a11.92,11.92,0,0,1-11.91-11.931v-9.25Z" transform="translate(8811.004 -20630)" fill="#83aada"/>
    <rect id="Rectangle_29" data-name="Rectangle 29" width="66.56" height="172.05" transform="translate(14451.184 -16413.891)" fill="#9cbde3"/>
    <rect id="Rectangle_30" data-name="Rectangle 30" width="66.16" height="172.05" transform="translate(14517.754 -16413.891)" fill="#75a6d8"/>
    <path id="Path_603" data-name="Path 603" d="M5785.46,4185.67v9.27H5627.07v-9.27a11.9,11.9,0,0,1,11.91-11.92h134.55a11.91,11.91,0,0,1,11.931,11.92Z" transform="translate(8811.004 -20630)" fill="#c3d6ee"/>
    <path id="Path_604" data-name="Path 604" d="M5663.16,4035v72.21a36.108,36.108,0,1,1,0-72.215Z" transform="translate(8811.004 -20630)" fill="#9cbde3"/>
    <path id="Path_605" data-name="Path 605" d="M5699.27,4071.09a36.1,36.1,0,0,1-36.109,36.12V4035a36.1,36.1,0,0,1,36.11,36.09Z" transform="translate(8811.004 -20630)" fill="#75a6d8"/>
    <path id="Path_606" data-name="Path 606" d="M5656.87,4064.78a12.15,12.15,0,1,1-12.15-12.15A12.15,12.15,0,0,1,5656.87,4064.78Z" transform="translate(8811.004 -20630)" fill="#fff"/>
    <path id="Path_607" data-name="Path 607" d="M5733.58,4112.18v40.67a20.34,20.34,0,0,1,0-40.67Z" transform="translate(8811.004 -20630)" fill="#9cbde3"/>
    <path id="Path_608" data-name="Path 608" d="M5753.93,4132.51a20.339,20.339,0,0,1-20.35,20.34v-40.67A20.34,20.34,0,0,1,5753.93,4132.51Z" transform="translate(8811.004 -20630)" fill="#75a6d8"/>
    <path id="Path_609" data-name="Path 609" d="M5730,4129a6.84,6.84,0,1,1-2-4.843,6.841,6.841,0,0,1,2,4.843Z" transform="translate(8811.004 -20630)" fill="#fff"/>
    <path id="Path_610" data-name="Path 610" d="M5772.25,4722.47v60.77a30.388,30.388,0,1,1,0-60.775Z" transform="translate(8811.004 -20630)" fill="#e87fb2"/>
    <path id="Path_611" data-name="Path 611" d="M5802.64,4752.85a30.379,30.379,0,0,1-30.39,30.39v-60.77A30.38,30.38,0,0,1,5802.64,4752.85Z" transform="translate(8811.004 -20630)" fill="#e8549d"/>
    <path id="Path_612" data-name="Path 612" d="M5767,4747.53a10.23,10.23,0,1,1-10.23-10.22A10.23,10.23,0,0,1,5767,4747.53Z" transform="translate(8811.004 -20630)" fill="#fff"/>
    <path id="Path_613" data-name="Path 613" d="M5808.14,4572.12v102.2a51.1,51.1,0,0,1,0-102.2Z" transform="translate(8811.004 -20630)" fill="#e87fb2"/>
    <path id="Path_614" data-name="Path 614" d="M5859.25,4623.2a51.1,51.1,0,0,1-51.11,51.12v-102.2a51.1,51.1,0,0,1,51.109,51.09Z" transform="translate(8811.004 -20630)" fill="#e8549d"/>
    <path id="Path_615" data-name="Path 615" d="M5799.25,4614.27a17.2,17.2,0,1,1-17.21-17.2,17.2,17.2,0,0,1,17.21,17.2Z" transform="translate(8811.004 -20630)" fill="#fff"/>
    <path id="Path_616" data-name="Path 616" d="M5640.18,4388c-80.16-58.64-144.11,24.13-122.38,59.69a44.07,44.07,0,0,0-26.279,80.87h215.22V4388Z" transform="translate(8811.004 -20630)" fill="#9cbde3"/>
    <path id="Path_617" data-name="Path 617" d="M5706.75,4528.59v319c-22.39,32.82-177.89,27.8-132.34-91.58a44.06,44.06,0,0,1-49.95-68.8,44.07,44.07,0,0,1-26.28-80.88,44.1,44.1,0,0,1-32.48-42.48c0-20.36,7.15-30.19,25.82-35.28Z" transform="translate(8811.004 -20630)" fill="#e8549d"/>
    <path id="Path_618" data-name="Path 618" d="M5706.75,4388v140.6H5922a44.07,44.07,0,0,0-26.29-80.871c21.73-35.56-42.22-118.33-122.38-59.689Z" transform="translate(8811.004 -20630)" fill="#75a6d8"/>
    <path id="Path_619" data-name="Path 619" d="M5632.56,4624.61v72.21a36.107,36.107,0,1,1,0-72.215Z" transform="translate(8811.004 -20630)" fill="#e87fb2"/>
    <path id="Path_620" data-name="Path 620" d="M5668.67,4660.71a36.1,36.1,0,0,1-36.11,36.11v-72.21a36.11,36.11,0,0,1,36.11,36.1Z" transform="translate(8811.004 -20630)" fill="#db0c80"/>
    <path id="Path_621" data-name="Path 621" d="M5626.28,4654.39a12.16,12.16,0,1,1-12.16-12.15A12.161,12.161,0,0,1,5626.28,4654.39Z" transform="translate(8811.004 -20630)" fill="#fff"/>
  </g>
</svg>
