<svg xmlns="http://www.w3.org/2000/svg" width="555.512" height="767" viewBox="0 0 555.512 767">
  <g id="Group_120" data-name="Group 120" transform="translate(-14239.702 17789)">
    <path id="Path_687" data-name="Path 687" d="M5777.42,2882.53c0-55.4-82.25-54.84-82.25-.58,0,21.53-30.87,20.76-30.87.58,0-55.16-83.39-55.2-83.39,0V3128.8h26.26V2882.53c0-20.47,30.87-20.39,30.87,0,0,55.17,83.4,55.21,83.4,0,0-20.54,29.72-20.45,29.72,0,0,55.17,83.39,55.21,83.39,0,0-20.41,30.88-20.44,30.88,0V3128.8h26.26V2882.53c0-52.72-80.09-58.2-83.4.67C5807.11,2903.48,5777.42,2902.28,5777.42,2882.53Z" transform="translate(8811.004 -20630)" fill="#afdedd"/>
    <path id="Path_688" data-name="Path 688" d="M5818.94,3161.39v281.7a60.62,60.62,0,0,0,121.241,0v-281.7Z" transform="translate(8811.004 -20630)" fill="#9cbde3"/>
    <rect id="Rectangle_43" data-name="Rectangle 43" width="121.24" height="37.29" transform="translate(14629.943 -17468.609)" fill="#86b3df"/>
    <path id="Path_689" data-name="Path 689" d="M5838.6,3270.3v172a41,41,0,1,0,81.93,0v-172Z" transform="translate(8811.004 -20630)" fill="#ef4a23"/>
    <rect id="Rectangle_44" data-name="Rectangle 44" width="75.66" height="222.33" transform="translate(14368.225 -17611.42)" fill="#c3d6ee"/>
    <path id="Path_690" data-name="Path 690" d="M5632.88,3265.85V3322h-75.66v-56.19a168.935,168.935,0,0,1,75.66,0Z" transform="translate(8811.004 -20630)" fill="#c3d6ee"/>
    <rect id="Rectangle_45" data-name="Rectangle 45" width="75.66" height="41.74" transform="translate(14368.225 -17611.43)" fill="#598eca"/>
    <path id="Path_691" data-name="Path 691" d="M5658.14,3001.68v7.39a9.5,9.5,0,0,1-9.49,9.5H5541.44a9.5,9.5,0,0,1-9.479-9.5v-7.39Z" transform="translate(8811.004 -20630)" fill="#83aada"/>
    <path id="Path_692" data-name="Path 692" d="M5658.14,2994.31v7.37H5532v-7.37a9.46,9.46,0,0,1,9.479-9.49h107.21a9.47,9.47,0,0,1,9.451,9.49Z" transform="translate(8811.004 -20630)" fill="#c3d6ee"/>
    <rect id="Rectangle_46" data-name="Rectangle 46" width="20.63" height="15.44" transform="translate(14368.225 -17559.48)" fill="#3a3a3a"/>
    <path id="Path_693" data-name="Path 693" d="M5632.88,3265.85V3322h-75.66v-56.19a168.935,168.935,0,0,1,75.66,0Z" transform="translate(8811.004 -20630)" fill="#c3d6ee"/>
    <path id="Path_694" data-name="Path 694" d="M5632.88,3265.85v-24.93h-75.66v24.93a166.34,166.34,0,1,0,75.66,0Z" transform="translate(8811.004 -20630)" fill="#bf3c95"/>
    <path id="Path_695" data-name="Path 695" d="M5551.13,3333.82a18.92,18.92,0,1,1-18.931-18.91,18.921,18.921,0,0,1,18.931,18.91Z" transform="translate(8811.004 -20630)" fill="#e568a6"/>
    <path id="Path_696" data-name="Path 696" d="M5609.19,3275.71a14.14,14.14,0,1,1-14.143-14.15,14.14,14.14,0,0,1,14.143,14.15Z" transform="translate(8811.004 -20630)" fill="#e568a6"/>
    <path id="Path_697" data-name="Path 697" d="M5640.21,3312.16a10.17,10.17,0,1,1-3-7.2,10.18,10.18,0,0,1,3,7.2Z" transform="translate(8811.004 -20630)" fill="#e568a6"/>
    <path id="Path_698" data-name="Path 698" d="M5673.28,3314.91a10.18,10.18,0,1,1-10.17-10.18,10.179,10.179,0,0,1,10.17,10.18Z" transform="translate(8811.004 -20630)" fill="#e568a6"/>
    <rect id="Rectangle_47" data-name="Rectangle 47" width="115.69" height="37.49" transform="translate(14292.104 -17059.49)" fill="#d97027"/>
    <rect id="Rectangle_48" data-name="Rectangle 48" width="115.72" height="37.49" transform="translate(14407.794 -17059.49)" fill="#ad5626"/>
    <rect id="Rectangle_49" data-name="Rectangle 49" width="25.93" height="279.82" transform="translate(14604.023 -17301.82)" fill="#3a3a3a"/>
    <rect id="Rectangle_50" data-name="Rectangle 50" width="25.93" height="279.82" transform="translate(14751.184 -17301.82)" fill="#3a3a3a"/>
    <rect id="Rectangle_51" data-name="Rectangle 51" width="209.29" height="39.36" transform="translate(14585.924 -17272.9)" fill="#58595a"/>
    <rect id="Rectangle_52" data-name="Rectangle 52" width="26.26" height="237.57" transform="translate(14391.914 -17611.42)" fill="#598eca"/>
    <rect id="Rectangle_53" data-name="Rectangle 53" width="26.26" height="186.11" transform="translate(14676.434 -17501.199)" fill="#598eca"/>
    <rect id="Rectangle_54" data-name="Rectangle 54" width="41.27" height="15.46" transform="translate(14368.225 -17598.391)" fill="#3a3a3a"/>
    <rect id="Rectangle_55" data-name="Rectangle 55" width="41.27" height="15.44" transform="translate(14368.225 -17520.58)" fill="#3a3a3a"/>
    <path id="Path_699" data-name="Path 699" d="M5619.85,3209.73a12.4,12.4,0,1,1-12.4-12.4,12.4,12.4,0,0,1,12.4,12.4Z" transform="translate(8811.004 -20630)" fill="#e568a6"/>
    <path id="Path_700" data-name="Path 700" d="M5621.59,3139.87a12.389,12.389,0,1,1-3.625-8.777,12.4,12.4,0,0,1,3.625,8.777Z" transform="translate(8811.004 -20630)" fill="#e568a6"/>
    <path id="Path_701" data-name="Path 701" d="M5587.13,3173.13A10.18,10.18,0,1,1,5577,3163a10.179,10.179,0,0,1,10.13,10.13Z" transform="translate(8811.004 -20630)" fill="#e568a6"/>
    <path id="Path_702" data-name="Path 702" d="M5948.75,3144.53v8.1a10.42,10.42,0,0,1-10.4,10.42H5820.78a10.42,10.42,0,0,1-10.4-10.42v-8.1Z" transform="translate(8811.004 -20630)" fill="#5588c6"/>
    <path id="Path_703" data-name="Path 703" d="M5948.75,3136.45v8.08H5810.38v-8.08a10.38,10.38,0,0,1,10.4-10.41h117.57a10.38,10.38,0,0,1,10.4,10.41Z" transform="translate(8811.004 -20630)" fill="#c3d6ee"/>
  </g>
</svg>
