<svg xmlns="http://www.w3.org/2000/svg" width="563.953" height="698.994" viewBox="0 0 563.953 698.994">
  <g id="Group_129" data-name="Group 129" transform="translate(-10545.031 18966.994)">
    <path id="Path_833" data-name="Path 833" d="M1840.22,2362h182.65v-97.65C1937.51,2264.35,1865.18,2305.34,1840.22,2362Z" transform="translate(8811.004 -20630)" fill="#a4a7ab"/>
    <path id="Path_834" data-name="Path 834" d="M2022.87,2264.35V2362h182.66C2180.56,2305.34,2108.25,2264.35,2022.87,2264.35Z" transform="translate(8811.004 -20630)" fill="#7f8084"/>
    <path id="Path_835" data-name="Path 835" d="M2194.19,1792.14,2154,1836.09a218.29,218.29,0,0,1,84.6,172.71c0,120.8-97.94,218.72-218.72,218.72a218.069,218.069,0,0,1-160.06-69.72l-40.16,43.93a277.291,277.291,0,0,0,200.22,85.18c153.59,0,278.1-124.52,278.1-278.11a277.529,277.529,0,0,0-103.79-216.66Z" transform="translate(8811.004 -20630)" fill="#7f8084"/>
    <path id="Path_836" data-name="Path 836" d="M2238.71,2158.78a23.84,23.84,0,1,1-23.84-23.82A23.84,23.84,0,0,1,2238.71,2158.78Z" transform="translate(8811.004 -20630)" fill="#d0d3d3"/>
    <rect id="Rectangle_90" data-name="Rectangle 90" width="48.49" height="96.68" transform="translate(10635.604 -18576.141)" fill="#7f8084"/>
    <path id="Path_837" data-name="Path 837" d="M2168.69,1663.93l-221.7,260,19.8,26.39-40.91,25.08,31.82,29.76,285.94-325.21C2211,1657.22,2168.69,1663.93,2168.69,1663.93Z" transform="translate(8811.004 -20630)" fill="#a4a7ab"/>
    <path id="Path_838" data-name="Path 838" d="M2243.64,1679.91,1957.7,2005.12l29,27.19,21.77-39.93,25.57,16,246.76-248.09C2279.38,1717.7,2263.24,1693.52,2243.64,1679.91Z" transform="translate(8811.004 -20630)" fill="#7f8084"/>
    <rect id="Rectangle_91" data-name="Rectangle 91" width="35.63" height="299.89" transform="translate(10545.031 -18611.887) rotate(-62.07)" fill="#a4a7ab"/>
    <path id="Path_839" data-name="Path 839" d="M2204.32,1788.22a53.79,53.79,0,0,0-39.71,90.15l76.18-75.84a53.58,53.58,0,0,0-36.47-14.31Z" transform="translate(8811.004 -20630)" fill="#d0d3d3"/>
    <path id="Path_840" data-name="Path 840" d="M2240.79,1802.53l-76.18,75.84a53.8,53.8,0,1,0,76.18-75.84Z" transform="translate(8811.004 -20630)" fill="#a4a7ab"/>
    <path id="Path_841" data-name="Path 841" d="M1838.78,2110a67.3,67.3,0,0,0-47.68,114.78l95.37-94.94a67,67,0,0,0-47.69-19.84Z" transform="translate(8811.004 -20630)" fill="#d0d3d3"/>
    <path id="Path_842" data-name="Path 842" d="M1791.1,2224.73a67.285,67.285,0,1,0,95.37-94.94Z" transform="translate(8811.004 -20630)" fill="#a4a7ab"/>
  </g>
</svg>
