<svg xmlns="http://www.w3.org/2000/svg" width="562.189" height="629.48" viewBox="0 0 562.189 629.48">
  <g id="Group_130" data-name="Group 130" transform="translate(-9290.004 17680)">
    <path id="Path_777" data-name="Path 777" d="M818.37,3015.82v463.84a99.817,99.817,0,1,0,199.635,0l0-463.84Z" transform="translate(8811.004 -20630)" fill="#9cbde3"/>
    <path id="Path_778" data-name="Path 778" d="M255.87,3117.6l-85.84-49.56v-49.56h16.16v40.24l69.68,40.21,69.67-40.21v-40.24H341.7v49.56Z" transform="translate(9276.004 -20219)" fill="#2e3894"/>
    <path id="Path_779" data-name="Path 779" d="M764.86,3400.51a7.85,7.85,0,0,1,7.85-7.85h0a7.849,7.849,0,0,1,7.86,7.85v57.95a7.85,7.85,0,0,1-7.86,7.851h0a7.85,7.85,0,0,1-7.85-7.85Z" transform="translate(8811.004 -20630)" fill="#e2e325"/>
    <path id="Path_780" data-name="Path 780" d="M661.16,3400.51a7.84,7.84,0,0,1,7.85-7.85h0a7.86,7.86,0,0,1,7.87,7.85v57.95a7.86,7.86,0,0,1-7.87,7.85h0a7.84,7.84,0,0,1-7.85-7.85Z" transform="translate(8811.004 -20630)" fill="#e2e325"/>
    <rect id="Rectangle_70" data-name="Rectangle 70" width="199.63" height="61.42" transform="translate(9629.374 -17614.18)" fill="#86b3df"/>
    <path id="Path_781" data-name="Path 781" d="M985.64,3323H850.73v155.33a67.458,67.458,0,1,0,134.915,0Z" transform="translate(8811.004 -20630)" fill="#e2e325"/>
    <path id="Path_782" data-name="Path 782" d="M964.49,3328.17a32.4,32.4,0,1,0,0,.007Z" transform="translate(8811.004 -20630)" fill="#e2e325"/>
    <path id="Path_783" data-name="Path 783" d="M1004.68,3273a19,19,0,1,1-19-19A19,19,0,0,1,1004.68,3273Z" transform="translate(8811.004 -20630)" fill="#e2e325"/>
    <path id="Path_784" data-name="Path 784" d="M951.13,3231.41a19,19,0,1,1-19-19A19,19,0,0,1,951.13,3231.41Z" transform="translate(8811.004 -20630)" fill="#e2e325"/>
    <path id="Path_785" data-name="Path 785" d="M930.69,3150.3a12.51,12.51,0,1,1-12.5-12.5,12.51,12.51,0,0,1,12.5,12.5Z" transform="translate(8811.004 -20630)" fill="#e2e325"/>
    <path id="Path_786" data-name="Path 786" d="M1041.19,2982.91v14.39a18.54,18.54,0,0,1-18.52,18.52h-209a18.51,18.51,0,0,1-18.49-18.52v-14.39Z" transform="translate(8811.004 -20630)" fill="#5588c6"/>
    <path id="Path_787" data-name="Path 787" d="M1041.19,2968.52v14.39h-246v-14.39A18.49,18.49,0,0,1,813.67,2950h209a18.51,18.51,0,0,1,18.52,18.52Z" transform="translate(8811.004 -20630)" fill="#9cbde3"/>
    <rect id="Rectangle_71" data-name="Rectangle 71" width="71.09" height="21.55" transform="translate(9644.354 -17528.1)" fill="#515251"/>
    <rect id="Rectangle_72" data-name="Rectangle 72" width="40.14" height="21.55" transform="translate(9644.354 -17453.311)" fill="#515251"/>
    <rect id="Rectangle_73" data-name="Rectangle 73" width="71.09" height="21.55" transform="translate(9644.354 -17378.52)" fill="#515251"/>
    <rect id="Rectangle_74" data-name="Rectangle 74" width="16.16" height="89.79" transform="translate(9523.284 -17375.721)" fill="#4f53a2"/>
    <path id="Path_788" data-name="Path 788" d="M634.52,3150.52h16.16V3101l-85.83-49.56L479,3101v49.56h16.16v-40.24l69.69-40.23,69.67,40.23Z" transform="translate(8811.004 -20630)" fill="#2e3894"/>
    <path id="Path_789" data-name="Path 789" d="M333.13,2803.04l20.24,11.69v-18.64l-20.24-11.69-77.77,44.89-69.68-40.22v-49.55H169.52v40.23l-69.67,40.22-69.69-40.22v-40.23H14v49.55l85.85,49.56,69.67-40.23,77.77,44.89v81.04l-77.26,44.6v49.55h16.16v-40.23l69.68-40.23,69.67,40.23v40.23H341.7v-40.81l11.67-6.74v-18.66l-20.24,11.69-69.69-40.23v-80.44Z" transform="translate(9276.004 -20219)" fill="#4f53a2"/>
    <path id="Path_790" data-name="Path 790" d="M560.32,3084.28a7.86,7.86,0,0,1,10.73,2.87h0a7.86,7.86,0,0,1-2.87,10.74l-50.18,29a7.85,7.85,0,0,1-10.73-2.88h0a7.85,7.85,0,0,1,2.87-10.73Z" transform="translate(8811.004 -20630)" fill="#e2e325"/>
    <path id="Path_791" data-name="Path 791" d="M723.27,3227.1a7.85,7.85,0,0,1-10.73-2.88h0a7.85,7.85,0,0,1,2.87-10.74l50.18-29a7.85,7.85,0,0,1,10.73,2.89h0a7.83,7.83,0,0,1-2.88,10.72Z" transform="translate(8811.004 -20630)" fill="#e2e325"/>
  </g>
</svg>
