<svg xmlns="http://www.w3.org/2000/svg" width="519.16" height="699" viewBox="0 0 519.16 699">
  <g id="Group_118" data-name="Group 118" transform="translate(-13021.504 18967)">
    <path id="Path_809" data-name="Path 809" d="M4186.16,1537.53H3940.34l64.56-78.61V1274.67h116.63v184.25Z" transform="translate(9276.004 -20219)" fill="#b2e0e9"/>
    <path id="Path_810" data-name="Path 810" d="M4703.42,2012.1l-52.26-63.57H4405.31L4353,2012.1c-31.63,38.53-4.95,97.37,44.11,97.37h262.16C4708.37,2109.47,4735.06,2050.63,4703.42,2012.1Z" transform="translate(8811.004 -20630)" fill="#753a82"/>
    <rect id="Rectangle_78" data-name="Rectangle 78" width="59.54" height="10.53" transform="translate(13309.464 -18601.66)" fill="#494a4c"/>
    <rect id="Rectangle_79" data-name="Rectangle 79" width="59.54" height="10.53" transform="translate(13309.464 -18675.35)" fill="#494a4c"/>
    <rect id="Rectangle_80" data-name="Rectangle 80" width="59.54" height="10.52" transform="translate(13309.464 -18749.029)" fill="#5d6064"/>
    <rect id="Rectangle_81" data-name="Rectangle 81" width="59.54" height="10.52" transform="translate(13309.464 -18822.721)" fill="#5d6064"/>
    <rect id="Rectangle_82" data-name="Rectangle 82" width="59.54" height="10.53" transform="translate(13309.464 -18896.41)" fill="#5d6064"/>
    <path id="Path_811" data-name="Path 811" d="M4486.88,1960.81a28.84,28.84,0,1,1-28.84-29.15,28.84,28.84,0,0,1,28.84,29.15Z" transform="translate(8811.004 -20630)" fill="#753a82"/>
    <path id="Path_812" data-name="Path 812" d="M4480.71,1960.81a22.79,22.79,0,1,1-6.6-16.164A22.67,22.67,0,0,1,4480.71,1960.81Z" transform="translate(8811.004 -20630)" fill="#fff"/>
    <path id="Path_813" data-name="Path 813" d="M4626.37,1975.78a21.13,21.13,0,1,1-21.13-21.13A21.13,21.13,0,0,1,4626.37,1975.78Z" transform="translate(8811.004 -20630)" fill="#fff"/>
    <path id="Path_814" data-name="Path 814" d="M4633.55,2065.18a13.74,13.74,0,1,1-13.74-13.74,13.74,13.74,0,0,1,13.74,13.74Z" transform="translate(8811.004 -20630)" fill="#fff"/>
    <path id="Path_815" data-name="Path 815" d="M4578.36,1913.63a10.18,10.18,0,1,1-10.17-10.17,10.18,10.18,0,0,1,10.17,10.17Z" transform="translate(8811.004 -20630)" fill="#753a82"/>
    <path id="Path_816" data-name="Path 816" d="M4545.83,1852a13.89,13.89,0,1,1-13.88-13.88A13.89,13.89,0,0,1,4545.83,1852Z" transform="translate(8811.004 -20630)" fill="#753a82"/>
    <path id="Path_817" data-name="Path 817" d="M4600,1669.49v9.68a6.49,6.49,0,0,1-6.5,6.5H4463.65a6.54,6.54,0,0,1-6.55-6.5v-9.68a6.531,6.531,0,0,1,6.55-6.49h129.87a6.48,6.48,0,0,1,6.48,6.49Z" transform="translate(8811.004 -20630)" fill="#b2e0e9"/>
    <rect id="Rectangle_83" data-name="Rectangle 83" width="116.64" height="21.33" transform="translate(13280.904 -18944.33)" fill="#89c5c5"/>
    <path id="Path_818" data-name="Path 818" d="M4304.38,2326.47h-28.51V1702.74a14.25,14.25,0,0,1,14.26-14.25h0a14.25,14.25,0,0,1,14.25,14.25Z" transform="translate(8811.004 -20630)" fill="#898580"/>
    <rect id="Rectangle_84" data-name="Rectangle 84" width="259.37" height="28.51" transform="translate(13021.504 -18886.801)" fill="#898580"/>
    <path id="Path_819" data-name="Path 819" d="M4640,1757.45h0a14.261,14.261,0,0,1-14.25,14.26h-39.2V1743.2h39.2A14.25,14.25,0,0,1,4640,1757.45Z" transform="translate(8811.004 -20630)" fill="#898580"/>
    <path id="Path_820" data-name="Path 820" d="M3806.95,1915.47h428.38a29.33,29.33,0,0,1,29.33,29.33v6.2h-487v-6.2a29.34,29.34,0,0,1,29.29-29.33Z" transform="translate(9276.004 -20219)" fill="#51504e"/>
    <rect id="Rectangle_85" data-name="Rectangle 85" width="116.68" height="18.56" transform="translate(13280.874 -18882.391)" fill="#898580"/>
  </g>
</svg>
