<svg xmlns="http://www.w3.org/2000/svg" width="585.61" height="553.984" viewBox="0 0 585.61 553.984">
  <g id="Group_125" data-name="Group 125" transform="translate(-9276 20119)">
    <path id="Path_909" data-name="Path 909" d="M620,523.71V994.9a70.045,70.045,0,1,1-140.09,0V523.71Z" transform="translate(8811.004 -20630)" fill="#c1c5cb"/>
    <path id="Path_910" data-name="Path 910" d="M615.7,553.45H486.23c-29.44,0-27.16-42.45,0-42.45H615.7C643.68,511,643.79,553.45,615.7,553.45Z" transform="translate(8811.004 -20630)" fill="#d7dce4"/>
    <path id="Path_911" data-name="Path 911" d="M620,769.94v225a70.045,70.045,0,0,1-140.09,0v-225Z" transform="translate(8811.004 -20630)" fill="#1e75bb"/>
    <path id="Path_912" data-name="Path 912" d="M526,929.12a11.94,11.94,0,1,1-11.94-11.94A11.94,11.94,0,0,1,526,929.12Z" transform="translate(8811.004 -20630)" fill="#76d0f6"/>
    <path id="Path_913" data-name="Path 913" d="M583.33,980.07a11.93,11.93,0,1,1-3.469-8.481,11.94,11.94,0,0,1,3.469,8.481Z" transform="translate(8811.004 -20630)" fill="#76d0f6"/>
    <path id="Path_914" data-name="Path 914" d="M583.33,878.18a11.94,11.94,0,1,1-11.93-11.93A11.94,11.94,0,0,1,583.33,878.18Z" transform="translate(8811.004 -20630)" fill="#76d0f6"/>
    <path id="Path_915" data-name="Path 915" d="M823.71,523.71V994.9a70.045,70.045,0,0,1-140.09,0V523.71Z" transform="translate(8811.004 -20630)" fill="#c1c5cb"/>
    <path id="Path_916" data-name="Path 916" d="M819.46,553.45H690c-29.44,0-27.16-42.45,0-42.45H819.46C847.43,511,847.55,553.45,819.46,553.45Z" transform="translate(8811.004 -20630)" fill="#d7dce4"/>
    <path id="Path_917" data-name="Path 917" d="M823.71,712.64V994.9a70.045,70.045,0,0,1-140.09,0V712.64Z" transform="translate(8811.004 -20630)" fill="#2bb573"/>
    <path id="Path_918" data-name="Path 918" d="M729.78,916.39a11.94,11.94,0,1,1-11.93-11.94,11.94,11.94,0,0,1,11.93,11.94Z" transform="translate(8811.004 -20630)" fill="#9ad2b0"/>
    <path id="Path_919" data-name="Path 919" d="M787.09,980.07a11.93,11.93,0,1,1-3.473-8.485A11.94,11.94,0,0,1,787.09,980.07Z" transform="translate(8811.004 -20630)" fill="#9ad2b0"/>
    <path id="Path_920" data-name="Path 920" d="M787.09,859.09a11.93,11.93,0,1,1-3.473-8.485,11.94,11.94,0,0,1,3.473,8.485Z" transform="translate(8811.004 -20630)" fill="#9ad2b0"/>
    <path id="Path_921" data-name="Path 921" d="M1033.83,523.71V994.9a70.04,70.04,0,0,1-140.08,0V523.71Z" transform="translate(8811.004 -20630)" fill="#c1c5cb"/>
    <path id="Path_922" data-name="Path 922" d="M1029.58,553.45H900.11c-29.43,0-27.16-42.45,0-42.45h129.47C1057.56,511,1057.67,553.45,1029.58,553.45Z" transform="translate(8811.004 -20630)" fill="#d7dce4"/>
    <path id="Path_923" data-name="Path 923" d="M1033.83,820.88v174a70.04,70.04,0,1,1-140.08,0v-174Z" transform="translate(8811.004 -20630)" fill="#f79420"/>
    <path id="Path_924" data-name="Path 924" d="M939.91,929.12A11.94,11.94,0,1,1,928,917.18a11.94,11.94,0,0,1,11.91,11.94Z" transform="translate(8811.004 -20630)" fill="#ffdc87"/>
    <path id="Path_925" data-name="Path 925" d="M997.21,980.07a11.93,11.93,0,1,1-3.469-8.481A11.94,11.94,0,0,1,997.21,980.07Z" transform="translate(8811.004 -20630)" fill="#ffdc87"/>
    <path id="Path_926" data-name="Path 926" d="M997.21,878.18a11.94,11.94,0,1,1-11.93-11.93A11.94,11.94,0,0,1,997.21,878.18Z" transform="translate(8811.004 -20630)" fill="#ffdc87"/>
    <path id="Path_927" data-name="Path 927" d="M748.89,782.67A11.94,11.94,0,1,1,737,770.73a11.94,11.94,0,0,1,11.89,11.94Z" transform="translate(8811.004 -20630)" fill="#9ad2b0"/>
    <rect id="Rectangle_123" data-name="Rectangle 123" width="140.05" height="23.25" transform="translate(9290.864 -19860.061)" fill="#76d0f6"/>
    <rect id="Rectangle_124" data-name="Rectangle 124" width="140.05" height="23.25" transform="translate(9494.594 -19936.211)" fill="#9ad2b0"/>
    <rect id="Rectangle_125" data-name="Rectangle 125" width="140.05" height="23.26" transform="translate(9704.834 -19829.471)" fill="#ffdc87"/>
  </g>
</svg>
