<svg xmlns="http://www.w3.org/2000/svg" width="465.383" height="699" viewBox="0 0 465.383 699">
  <g id="Group_124" data-name="Group 124" transform="translate(-9356.223 18967)">
    <path id="Path_843" data-name="Path 843" d="M978.31,2129.31c0,110.5-89.9,200.38-200.38,200.38s-200.37-89.88-200.37-200.38a197.6,197.6,0,0,1,8.758-58.2l383.242.026A197.885,197.885,0,0,1,978.31,2129.31Z" transform="translate(8811.004 -20630)" fill="#e2e325"/>
    <path id="Path_844" data-name="Path 844" d="M969.56,2071.14H586.31c19.59-63.9,66.56-114.24,147-137.57v-121h89.2v121C894.34,1954.35,947.56,1999.39,969.56,2071.14Z" transform="translate(8811.004 -20630)" fill="#c3d6ee"/>
    <path id="Path_845" data-name="Path 845" d="M963.19,1988.51a234.9,234.9,0,0,0-108.35-78.85V1812.6H822.53v121c104.1,30.36,155.77,111.18,155.77,195.74,0,110.48-89.89,200.37-200.37,200.37s-200.37-89.89-200.37-200.37c0-83.93,51-165.17,155.77-195.74v-121H701v97.06a234.74,234.74,0,0,0-108.33,78.85,230.5,230.5,0,0,0-47.45,140.8c0,128.3,104.39,232.69,232.69,232.69s232.69-104.39,232.69-232.69a230.551,230.551,0,0,0-47.41-140.8Z" transform="translate(8811.004 -20630)" fill="#598eca"/>
    <rect id="Rectangle_92" data-name="Rectangle 92" width="177.75" height="58.17" transform="translate(9500.063 -18875.57)" fill="#83aada"/>
    <path id="Path_846" data-name="Path 846" d="M774,2166.52c.56-.79,2.25-1.18,3.94-1.18V2025.83c-50.17,0-95.92,40.09-97.74,90.74v57.17c0,15,20.4,29.8,44.25,29.8L715,2237.67c17.35,10.58,40.15,15.88,63,15.88v-62H764.6a6,6,0,0,1-.88-7.16Zm-47.4,8.75c-38.78,0-45.55-56.94,2.54-56.94,10.83,0,27.26,1.89,33.09,14,7.96,16.67-2,42.94-35.64,42.94Z" transform="translate(8811.004 -20630)" fill="#515251"/>
    <path id="Path_847" data-name="Path 847" d="M777.93,2025.83v139.51c1.69,0,3.38.39,3.94,1.18l10.38,17.89a6,6,0,0,1-.91,7.16H777.93v62c22.84,0,45.65-5.3,63-15.88l-9.47-34.13c23.82,0,44.22-14.77,44.22-29.8v-57.17C873.85,2065.92,828.1,2025.83,777.93,2025.83Zm51.37,149.44c-33.35,0-43.72-26-35.62-42.92,5.82-12.13,22.22-14,33.05-14C874.82,2118.33,868.06,2175.27,829.3,2175.27Z" transform="translate(8811.004 -20630)" fill="#3a3a3a"/>
    <rect id="Rectangle_93" data-name="Rectangle 93" width="199.6" height="91.43" transform="translate(9489.134 -18967)" fill="#ee4823"/>
    <rect id="Rectangle_94" data-name="Rectangle 94" width="23.55" height="55.77" transform="translate(9508.684 -18949.73)" fill="#ed3024"/>
    <rect id="Rectangle_95" data-name="Rectangle 95" width="23.55" height="55.77" transform="translate(9554.334 -18949.73)" fill="#ed3024"/>
    <rect id="Rectangle_96" data-name="Rectangle 96" width="23.55" height="55.77" transform="translate(9599.984 -18949.73)" fill="#ed3024"/>
    <rect id="Rectangle_97" data-name="Rectangle 97" width="23.55" height="55.77" transform="translate(9645.634 -18949.73)" fill="#ed3024"/>
    <path id="Path_848" data-name="Path 848" d="M713.38,1992.32a17.62,17.62,0,1,1-5.161-12.469,17.63,17.63,0,0,1,5.161,12.469Z" transform="translate(8811.004 -20630)" fill="#fff"/>
  </g>
</svg>
