<svg xmlns="http://www.w3.org/2000/svg" width="473.787" height="743.424" viewBox="0 0 473.787 743.424">
  <g id="Group_133" data-name="Group 133" transform="translate(-11820.004 16506)">
    <path id="Path_638" data-name="Path 638" d="M3471.28,4642.37c-28.76-72.74-103.87-113.83-178.64-103l-9.09-23h-81.19l19.9,50.36c-62.25,42.44-89.2,123.2-60.44,196,33.5,84.74,129.95,126.5,215.39,93.28S3504.78,4727.12,3471.28,4642.37Z" transform="translate(8811.004 -20630)" fill="#bf3c95"/>
    <path id="Path_639" data-name="Path 639" d="M3136.85,4332.18s-25.42-47.25-72.78-77.44l125.16-52s-13.48,56-4.2,108.52Z" transform="translate(8811.004 -20630)" fill="#e2e325"/>
    <path id="Path_640" data-name="Path 640" d="M2818.55,4105.36h-81.19l-70.26-177.72,70.38-27.36Z" transform="translate(9276.004 -20219)" fill="#c3d6ee"/>
    <path id="Path_641" data-name="Path 641" d="M2752.69,3938.76l-70.38,27.37-15.22-38.51,70.38-27.36Z" transform="translate(9276.004 -20219)" fill="#598eca"/>
    <path id="Path_642" data-name="Path 642" d="M3219.81,4286.55l2.69,6.81a9.39,9.39,0,0,1-5.36,12.2l-99.73,38.77a9.511,9.511,0,0,1-12.28-5.34l-2.7-6.81Z" transform="translate(8811.004 -20630)" fill="#83aada"/>
    <path id="Path_643" data-name="Path 643" d="M3217.12,4279.75l2.69,6.8-117.38,45.63-2.68-6.8a9.35,9.35,0,0,1,5.36-12.189l99.72-38.771a9.5,9.5,0,0,1,12.29,5.33Z" transform="translate(8811.004 -20630)" fill="#c3d6ee"/>
    <path id="Path_644" data-name="Path 644" d="M3256,4626a34.18,34.18,0,0,1-19.58,44.43,34.6,34.6,0,0,1-44.76-19.419,34.14,34.14,0,0,1,19.53-44.4A34.67,34.67,0,0,1,3256,4626Z" transform="translate(8811.004 -20630)" fill="#e568a6"/>
    <path id="Path_645" data-name="Path 645" d="M3283.1,4763.13a17.42,17.42,0,0,1-10,22.641,17.64,17.64,0,0,1-22.81-9.9,17.39,17.39,0,0,1,9.95-22.62A17.651,17.651,0,0,1,3283.1,4763.13Z" transform="translate(8811.004 -20630)" fill="#e568a6"/>
    <path id="Path_646" data-name="Path 646" d="M3397.54,4686.5a14.65,14.65,0,0,1-8.39,19.05,14.84,14.84,0,0,1-19.19-8.33,14.649,14.649,0,0,1,8.371-19A14.87,14.87,0,0,1,3397.54,4686.5Z" transform="translate(8811.004 -20630)" fill="#e568a6"/>
    <path id="Path_647" data-name="Path 647" d="M3405.7,4602.53a14.66,14.66,0,0,1-8.4,19,14.831,14.831,0,0,1-19.19-8.32,14.65,14.65,0,0,1,8.37-19A14.87,14.87,0,0,1,3405.7,4602.53Z" transform="translate(8811.004 -20630)" fill="#fff"/>
    <path id="Path_648" data-name="Path 648" d="M3272.23,4552a14,14,0,0,1-8,18.16,14.16,14.16,0,0,1-18.311-7.93,14,14,0,0,1,8-18.16A14.15,14.15,0,0,1,3272.23,4552Z" transform="translate(8811.004 -20630)" fill="#e568a6"/>
    <path id="Path_649" data-name="Path 649" d="M3260.06,4492.3a12.26,12.26,0,0,1-7,15.93,12.43,12.43,0,0,1-16.051-6.95,12.26,12.26,0,0,1,7-15.93,12.43,12.43,0,0,1,16.051,6.95Z" transform="translate(8811.004 -20630)" fill="#e568a6"/>
    <path id="Path_650" data-name="Path 650" d="M3247.52,4422.83a24.241,24.241,0,0,1-13.9,31.54,24.61,24.61,0,0,1-31.81-13.77,24.29,24.29,0,0,1,13.9-31.54,24.58,24.58,0,0,1,31.81,13.77Z" transform="translate(8811.004 -20630)" fill="#e568a6"/>
    <path id="Path_651" data-name="Path 651" d="M3203.67,4358.52a17.43,17.43,0,0,1-10,22.71,17.72,17.72,0,0,1-22.9-9.911,17.489,17.489,0,0,1,10-22.72A17.7,17.7,0,0,1,3203.67,4358.52Z" transform="translate(8811.004 -20630)" fill="#e568a6"/>
    <path id="Path_652" data-name="Path 652" d="M3216.27,4470.38a10.06,10.06,0,0,1-5.74,13.09,10.21,10.21,0,0,1-13.189-5.73,10.05,10.05,0,0,1,5.75-13.07,10.2,10.2,0,0,1,13.18,5.71Z" transform="translate(8811.004 -20630)" fill="#e568a6"/>
    <path id="Path_653" data-name="Path 653" d="M3316.35,4579.42a10,10,0,0,1-5.75,13.07,10.18,10.18,0,0,1-13.18-5.7,10,10,0,0,1,5.75-13.08A10.19,10.19,0,0,1,3316.35,4579.42Z" transform="translate(8811.004 -20630)" fill="#e568a6"/>
    <path id="Path_654" data-name="Path 654" d="M3348.12,4570a10.06,10.06,0,0,1-5.76,13.07,10.18,10.18,0,0,1-13.18-5.7,10.06,10.06,0,0,1,5.76-13.081A10.2,10.2,0,0,1,3348.12,4570Z" transform="translate(8811.004 -20630)" fill="#e568a6"/>
    <path id="Path_655" data-name="Path 655" d="M3103.56,4233.22a40.89,40.89,0,1,1-40.89-40.54,40.891,40.891,0,0,1,40.89,40.54Z" transform="translate(8811.004 -20630)" fill="#9cbde3"/>
    <path id="Path_656" data-name="Path 656" d="M3158.63,4178.61c0,30.16-24.66,54.61-55.07,54.61s-55.07-24.45-55.07-54.61,24.65-54.61,55.07-54.61S3158.63,4148.45,3158.63,4178.61Z" transform="translate(8811.004 -20630)" fill="#9cbde3"/>
    <path id="Path_657" data-name="Path 657" d="M3119.14,4212.81c0,30.16-24.65,54.61-55.07,54.61S3009,4243,3009,4212.81s24.66-54.61,55.07-54.61S3119.14,4182.65,3119.14,4212.81Z" transform="translate(8811.004 -20630)" fill="#9cbde3"/>
    <path id="Path_658" data-name="Path 658" d="M3196.63,4202.75c0,30.15-24.65,54.61-55.07,54.61s-55.07-24.46-55.07-54.61,24.66-54.62,55.07-54.62S3196.63,4172.58,3196.63,4202.75Z" transform="translate(8811.004 -20630)" fill="#9cbde3"/>
    <path id="Path_659" data-name="Path 659" d="M3197.57,4169.2a34.78,34.78,0,1,1-34.77-34.49A34.78,34.78,0,0,1,3197.57,4169.2Z" transform="translate(8811.004 -20630)" fill="#9cbde3"/>
    <path id="Path_660" data-name="Path 660" d="M3245,4192.68a34.78,34.78,0,1,1-34.78-34.479A34.78,34.78,0,0,1,3245,4192.68Z" transform="translate(8811.004 -20630)" fill="#9cbde3"/>
    <path id="Path_661" data-name="Path 661" d="M3083.26,4273.77a34.78,34.78,0,1,1-34.77-34.49A34.78,34.78,0,0,1,3083.26,4273.77Z" transform="translate(8811.004 -20630)" fill="#9cbde3"/>
    <path id="Path_662" data-name="Path 662" d="M3210.21,4257.36s14.17-36.17,57.49-44.55l8.6,26.47S3238.63,4246.57,3210.21,4257.36Z" transform="translate(8811.004 -20630)" fill="#e2e325"/>
    <path id="Path_663" data-name="Path 663" d="M3150.47,4221.24s-15.55-29.21,3.19-61.52l22,9.29S3159.33,4197.1,3150.47,4221.24Z" transform="translate(8811.004 -20630)" fill="#e2e325"/>
    <path id="Path_664" data-name="Path 664" d="M3091,4229.35s-16.4-28.76-53.93-30.58l-4,23.36S3065.76,4223.7,3091,4229.35Z" transform="translate(8811.004 -20630)" fill="#e2e325"/>
    <path id="Path_665" data-name="Path 665" d="M3091.23,4323.58s-33-4.37-57.11,24.23l16.38,17.24S3071.45,4340.17,3091.23,4323.58Z" transform="translate(8811.004 -20630)" fill="#e2e325"/>
  </g>
</svg>
