<svg xmlns="http://www.w3.org/2000/svg" width="574.13" height="694.999" viewBox="0 0 574.13 694.999">
  <g id="Group_134" data-name="Group 134" transform="translate(-10523.044 16462)">
    <path id="Path_666" data-name="Path 666" d="M2053.47,4717.34v.31h.06S2053.47,4717.31,2053.47,4717.34Z" transform="translate(8811.004 -20630)" fill="#fcc10f"/>
    <path id="Path_667" data-name="Path 667" d="M2054,4862V4717.65c-2.54,1-37,33.51-47.22,67.4a160.974,160.974,0,0,0-25-29.22s-36.64,32.73-36.64,61.77c0,55.8,49.64,44.45,108.33,44.45h.16C2053.58,4862.05,2054,4862,2054,4862Z" transform="translate(8811.004 -20630)" fill="#fcc10f"/>
    <path id="Path_668" data-name="Path 668" d="M2125.6,4755.83a167.447,167.447,0,0,0-24.68,29.35c-10.25-33.82-46.92-66.4-46.92-67.84V4862c55.72,0,108.45,10.69,108.45-44.41C2162.45,4788.51,2125.6,4755.83,2125.6,4755.83Z" transform="translate(8811.004 -20630)" fill="#f68e1e"/>
    <rect id="Rectangle_35" data-name="Rectangle 35" width="139.32" height="63.33" transform="translate(10794.074 -16462)" fill="#6acdf0"/>
    <rect id="Rectangle_36" data-name="Rectangle 36" width="73.46" height="233.04" transform="translate(10827.004 -16431.6)" fill="#6acdf0"/>
    <path id="Path_669" data-name="Path 669" d="M1726.52,4130.02l-256.2-39.49,116.75-202.18Z" transform="translate(9276.004 -20219)" fill="#6acdf0"/>
    <path id="Path_670" data-name="Path 670" d="M1821.17,4294H1352.88l117.44-203.49,256.2,39.5Z" transform="translate(9276.004 -20219)" fill="#104d5d"/>
    <path id="Path_671" data-name="Path 671" d="M2146.78,4608.19a22.74,22.74,0,1,1-6.657-16.1,22.76,22.76,0,0,1,6.657,16.1Z" transform="translate(8811.004 -20630)" fill="#6acdf0"/>
    <path id="Path_672" data-name="Path 672" d="M1997.79,4675a15.17,15.17,0,1,1-15.163-15.16A15.169,15.169,0,0,1,1997.79,4675Z" transform="translate(8811.004 -20630)" fill="#6acdf0"/>
    <rect id="Rectangle_37" data-name="Rectangle 37" width="131.72" height="195.04" transform="translate(10535.704 -16208.7)" fill="#6acdf0"/>
    <rect id="Rectangle_38" data-name="Rectangle 38" width="131.72" height="40.53" transform="translate(10535.704 -16216.3)" fill="#3c91a4"/>
    <rect id="Rectangle_39" data-name="Rectangle 39" width="73.46" height="40.53" transform="translate(10827.004 -16398.67)" fill="#3c91a4"/>
    <path id="Path_673" data-name="Path 673" d="M1856.42,4616.35H1724.7v103.4a65.86,65.86,0,0,0,131.72,0Z" transform="translate(8811.004 -20630)" fill="#fcc10f"/>
    <path id="Path_674" data-name="Path 674" d="M1788.18,4662.45a21.38,21.38,0,1,1-21.37-21.38A21.38,21.38,0,0,1,1788.18,4662.45Z" transform="translate(8811.004 -20630)" fill="#f68e1e"/>
    <path id="Path_675" data-name="Path 675" d="M1808.65,4737.8a12.56,12.56,0,1,1-12.55-12.561,12.56,12.56,0,0,1,12.55,12.561Z" transform="translate(8811.004 -20630)" fill="#f68e1e"/>
    <rect id="Rectangle_40" data-name="Rectangle 40" width="151.98" height="48.13" transform="translate(10523.044 -16256.82)" fill="#6acdf0"/>
    <rect id="Rectangle_41" data-name="Rectangle 41" width="20.26" height="157.05" transform="translate(10558.504 -16175.77)" fill="#fff"/>
    <rect id="Rectangle_42" data-name="Rectangle 42" width="20.26" height="119.05" transform="translate(10842.204 -16386.01)" fill="#fff"/>
  </g>
</svg>
